<?xml version="1.0"?>
<svg xmlns="http://www.w3.org/2000/svg" xmlns:xlink="http://www.w3.org/1999/xlink" version="1.1" id="Capa_1" x="0px" y="0px" viewBox="0 0 511.998 511.998" style="enable-background:new 0 0 511.998 511.998;" xml:space="preserve" width="512px" height="512px" class=""><g><path style="fill:#B9C8D3" d="M40.921,169.229c0.26,35.122-2.769,70.735-1.024,105.801c0.447,8.989-0.958,18.035-1.466,26.996  c-0.54,9.532,0.373,19.812,1.72,29.292c0.993,6.983,3.06,17.679,10.714,20.27c6.432,2.177,16.292,1.965,23.027,2.295  c21.499,1.053,42.958-0.153,64.458-0.516c16.972-0.287,33.919-1.385,50.911-1.545c18.683-0.176,37.256,1.665,55.923,1.543  c13.626-0.089,27.261-0.052,40.876-0.675c6.45-0.295,13.333-1.721,19.75-1.454c3.966,0.165,6.12,1.871,10.014,3.013  c9.977,2.927,24.999,0.609,31.174-8.562c3.692-5.483,1.548-10.582,1.677-16.636c0.169-7.95-0.121-15.991,0.169-23.938  c0.52-14.254,1.363-28.763,1.388-43.066c0.045-25.525-3.198-50.489-1.472-75.977c-11.773,29.453-64.395-19.918-78.529-21.768  c-10.657-1.395-21.878-0.365-32.63-0.856c-18.4-0.841-36.732-1.064-55.159-1.088c-25.9-0.033-52.129,0.426-77.993,1.827  c-8.616,0.467-17.145,0.608-25.771,0.626C67.214,164.834,50.637,159.642,40.921,169.229z" data-original="#B2B2B2" class="active-path" data-old_color="#B2B2B2"/><path style="fill:#F5A205" d="M7.047,400.46c-2.749,5.25-4.803,14.584-1.9,20.163c4.238,8.145,14.912,8.282,22.526,10.906  c10.964,3.778,22.425,2.3,33.863,2.315c8.287,0.01,16.486-0.745,24.757-1c10.715-0.33,20.29,0.03,30.786-1.983  c10.289-1.973,22.834,0.57,33.376,1.425c13.985,1.134,26.805-1.321,40.629-2.27c23.833-1.635,47.654,0.387,71.459,0.391  c46.453,0.009,96.638,10.588,142.185-2.332c8.91-2.528,10.97-8.733,9.819-17.878c-1.07-8.497-4.282-15.351-12.297-17.565  c-13.854-3.826-28.915,0.062-43.147,1.002c-18.574,1.226-36.986-2.241-55.574-2.022c-30.274,0.357-60.487,3.043-90.755,1.95  c-15.553-0.562-31.126-0.914-46.678-1.471c-11.457-0.411-22.88,0.254-34.22-0.48c-12.931-0.836-25.83,0.53-38.807,0.503  c-10.814-0.022-21.825,0.561-32.538,2.087c-11.336,1.615-22.547,1.67-33.873,2.822C18.035,397.901,8.617,398.635,7.047,400.46z" data-original="#F76B25" class="" data-old_color="#8FBE36"/><g>
	<path style="fill:#B9C8D3" d="M117.998,378.368c-3.805,0-12.683-1.393-15.254,1.572c-2.886,3.328-1.379,11.894,2.013,14.038   c6.13,3.874,21.724,1.346,28.413,1.107c12.101-0.432,24.136-0.697,36.202-0.025c11.913,0.663,23.538,0.469,35.457,0.491   c4.613,0.009,14.524,0.844,18.361-2.347c2.641-2.197,2.441-7.274-0.132-10.172c-4.37-4.921-19.012-2.708-24.815-2.7   c-14.184,0.018-28.168-1.64-42.273-2.825c-5.81-0.488-11.535-0.605-17.36-0.612C130.382,376.885,119.958,379.834,117.998,378.368z" data-original="#F4F4F4" class="" data-old_color="#B2B2B2"/>
	<path style="fill:#B9C8D3" d="M259.388,389.168c0.287-27.779,56.62-26.54,52.456,0.908c-5.383,0.742-12.105-0.177-17.596-0.459   C283.448,389.063,269.902,386.265,259.388,389.168z" data-original="#F4F4F4" class="" data-old_color="#B2B2B2"/>
</g><g>
	<path style="fill:#FC315A" d="M156.291,354.803c-2.155,6.778-0.249,17.508,1.558,24.484c10.139-0.104,20.754,1.952,30.955,2.476   c8.167,0.419,16.823-0.412,24.57-0.449c4.966-0.023,7.696-0.626,9.22,4.481c1.742,5.835-1.093,4.903,4.326,5.458   c4.453,0.456,11.171,0.351,15.698-0.197c0.434-8.21,0.489-16.885-0.402-25.068c-0.257-2.361,0.407-11.865-1.009-13.903   c-0.974-1.402-2.634-0.924-4.18-1.332c-7.442-1.966-17.156-1.023-24.786-0.77c-12.012,0.398-23.876,1.587-35.825,2.842   C173.249,353.157,158.72,357.556,156.291,354.803z" data-original="#727272" class="" data-old_color="#33A3C1"/>
	<path style="fill:#FC315A" d="M39.94,318.965c-0.124,10.054,2.332,23.647,11.605,29.084c10.105,5.924,27.126,5.289,38.233,5.281   c27.372-0.019,54.582,0.028,81.932,0.496c35.027,0.599,70.308-0.773,105.313-1.957c13.366-0.452,26.536-0.043,39.906,0.505   c7.548,0.309,16.597,0.813,23.949-0.887c6.226-1.439,7.077-5.269,7.373-11.431c0.218-4.523,0.368-14.211-3.048-17.638   c-4.326-4.338-17.171-1.122-22.518-1.001c-11.269,0.254-22.319-0.803-33.527-1.362c-19.426-0.969-39.061,0.458-58.489,0.383   c-23.518-0.091-47.038,1.236-70.627,0.992c-26.829-0.277-54.48,0.562-81.159-2.562C65.619,317.315,50.98,315.905,39.94,318.965z" data-original="#727272" class="" data-old_color="#33A3C1"/>
</g><path style="fill:#F5F5F5" d="M69.396,197.704c-2.04,3.217-1.483,7.549-1.473,11.231c0.023,8.213,0,16.427,0,24.64  c0,21.775,4.149,42.785,4.442,64.452c0.083,6.139-0.966,12.36-0.931,18.409c13.375,0.058,27.096,2.158,40.539,3.006  c35.386,2.233,70.816,0.209,106.17,1.512c17.738,0.654,35.412,0.409,53.123,0.956c12.378,0.383,25.764,0.838,37.632-0.576  c-1.563-6.494-1.918-14.573-1.889-21.397c0.084-20.024,2.155-40.35,2.946-60.42c0.347-8.793,0.914-17.738,0.489-26.59  c-0.327-6.816-1.698-13.834-1.546-20.573c-9.202,3.363-18.88,9.717-29.259,5.974c-5.305-1.914-4.142-4.519-6.546-8.233  c-2.24-3.461-2.397-2.437-6.832-2.211c-10.283,0.525-20.642-0.446-30.928-0.017c-13.248,0.553-26.706,0.168-39.994,0.755  c-8.762,0.387-17.516,1.339-26.283,1.73c-9.232,0.412-18.178-1.172-27.248-1.701c-10.427-0.608-20.985,0.844-31.401,1.197  C95.601,190.348,77.513,183.522,69.396,197.704z" data-original="#14DDF7" class="" data-old_color="#f5f5f5"/><g>
	<path style="fill:#8FBE36" d="M105.725,222.25c-9.572,6.24-11.795,23.429-9.953,33.996c1.795,10.3,8.786,17.564,18.298,21.383   c9.659,3.878,23.492,5.808,33.039,0.479c13.852-7.733,20.187-24.692,15.871-39.638c-2.943-10.192-9.354-17.454-18.359-22.98   C131.103,207.196,116.127,212.944,105.725,222.25z" data-original="#71D182" class="" data-old_color="#FC315A"/>
	<path style="fill:#8FBE36" d="M245.641,216.359c-1.729,19.658-6.286,40.844-3.455,60.634c2.014,14.079,3.357,31.121,22.393,28.644   c18.339-2.386,17.812-15.949,18.482-31.324c0.704-16.171,2.407-34.983-1.067-50.872   C278.682,208.294,255.674,201.414,245.641,216.359z" data-original="#71D182" class="" data-old_color="#FC315A"/>
</g><path style="fill:#F5A205" d="M275.365,163.712c-1.289-0.371-2.451-0.346-3.31,0.389c-4.014,3.435-1.994,12.92-1.681,17.468  c0.486,7.069,2.246,11.182,8.871,14.636c6.162,3.212,13.191,4.008,20.017,2.385c4.237-1.008,14.051-5.297,13.623-10.684  c-0.341-4.286-6.638-6.118-9.815-7.693c-6.913-3.427-12.71-7.698-19.347-11.717C281.542,167.175,278.157,164.515,275.365,163.712z" data-original="#FFDC0F" class="" data-old_color="#f5a205"/><path style="fill:#53DFD3" d="M308.972,102.953c-18.435,3.092-37.587,13.125-48.626,28.365c-2.956,4.081-10.37,13.992-7.706,19.292  c2.042,4.063,10.91,6.294,14.725,8.8c11.62,7.633,23.944,14.312,36.001,21.432c7.878,4.652,21.407,16.853,31.241,15.04  c11.615-2.141,15.578-18.626,18.068-28.37c3.508-13.723,5.622-29.267,0.027-42.752C346.511,109.841,326.754,100.813,308.972,102.953  z" data-original="#9E9E9E" class="" data-old_color="#33A3C1"/><g>
	<path style="fill:#33A3C1" d="M342.356,77.915c-4.162,2.554-21.494,20.42-18.652,26.761c1.725,3.849,14.352,4.39,17.954,6.433   c2.847,1.615,4.371,5.122,7.477,6.013c5.042-6.45,14.15-18.405,13.847-27.031c-0.144-4.082-2.352-6.532-5.661-8.737   C352.025,77.825,345.555,80.404,342.356,77.915z" data-original="#7F7F7F" class="" data-old_color="#53DFD3"/>
	<path style="fill:#33A3C1" d="M387.522,389.659c1.018-0.477-0.583-14.156,0.576-17.599c15.015-0.822,31.348-1.451,45.977,1.484   c2.757,8.204,3.614,20.772,1.068,29.259c-1.505,5.015-8.733,10.849-14.448,9.645c-5.898-1.243-4.646-9.923-7.861-14.124   c-2.547-3.323-6.2-6.341-10.208-7.53C399.675,389.918,390.226,388.391,387.522,389.659z" data-original="#7F7F7F" class="" data-old_color="#53DFD3"/>
</g><path style="fill:#53DFD3" d="M479.585,212.423c0.042,5.46-5.101,10.786-7.512,15.688c-5.638,11.467-11.122,22.508-16.789,33.907  c-3.305,6.648-6.615,13.23-9.614,20.029c-5.475,12.409-11.248,24.509-17.179,36.706c-6.866,14.12-12.788,28.792-20.124,42.664  c-1.682,3.181-4.867,6.296-1.378,9.058c2.034,1.61,11.376,0.788,13.915,0.53c6.584-0.669,7.047-5.676,10.687-11.777  c9.136-15.313,16.658-31.498,24.358-47.559c3.933-8.203,7.904-16.39,12.167-24.427c3.196-6.025,7.656-11.338,10.609-17.47  c4.927-10.236,8.743-21.177,12.997-31.713c5.326-13.192,20.803-29.66,7.501-43.312c-3.135-3.218-6.965-5.769-10.457-8.579  c-7.938-6.388-15.948-12.227-24.411-17.905c-13.652-9.161-27.831-17.648-41.023-27.243c-13.109-9.534-27.672-17.032-40.445-26.982  c-5.964-4.646-15.931-16.049-23.062-10.332c-2.321,1.861-6.762,6.839-8.164,9.461c-2.186,4.087-0.774,4.691,2.765,7.49  c7.471,5.91,15.654,10.998,23.032,16.937c16.532,13.309,33.496,29.422,52.164,39.874c11.152,6.244,22.809,11.405,33.616,18.308  c5.008,3.199,12.144,7.154,15.206,12.508C479.236,209.668,479.575,211.05,479.585,212.423z" data-original="#B9C8D3" class="" data-old_color="#33A3C1"/><path d="M508.92,198.877c-5.893-5.977-14.104-10.54-20.878-15.52c-14.322-10.526-28.357-20.974-43.204-30.769  c-15.379-10.147-30.798-20.728-46.574-30.18c-9.933-5.951-20.593-17.135-32.307-20.918c1.453-2.571,2.653-5.218,3.306-8.022  c2.184-9.381-6.275-14.734-13.998-17.633c-7.369-2.767-16.083-2.827-21.758,3.334c-5.064,5.497-10.893,13.178-13.099,20.84  c-1.542-0.212-3.107-0.355-4.69-0.424c-14.35-0.627-29.302,4.541-40.581,13.389c-1.206,0.946-2.474,1.993-3.765,3.119  c-6.851,5.134-12.455,11.612-17.271,19.126c-6.866,10.711-3.644,16.856,5.435,24.682c0.949,0.818,1.93,1.593,2.904,2.377  c-25.306-3.204-51.881-4.196-77.11-3.933c-33.494,0.348-66.855,0.745-100.304,2.642c-8.405,0.477-16.785,0.733-25.19,1.271  c-5.441,0.348-12.092-0.414-16.933,2.659c-10.67,6.773-6.215,28.99-5.989,39.549c0.766,35.883-3.908,71.764-1.174,107.64  c0.55,7.219,1.311,14.407,1.886,21.617c0.475,5.959-0.073,11.922,4.447,16.549c9.117,9.332,28.64,8.506,40.636,9.508  c22.902,1.915,46.261,1.627,69.513,0.606c-0.065,2.109,0.132,4.242,0.261,6.322c0.187,2.992,0.289,5.971,0.417,8.969  c-14.311-0.73-28.888-0.968-43.127-0.088c-9.272,0.573-9.93,5.682-8.649,13.286c-7.293,0.248-14.58,0.529-21.854,0.835  c-16.459,0.692-32.957,0.018-49.416,0.699c-9.223,0.381-22.842,0.379-27.696,10.063c-4.469,8.915-1.685,24.768,5.473,31.557  c8.635,8.189,26.626,5.516,37.527,5.505c33.478-0.031,66.966-1.928,100.483-1.911c69.248,0.036,138.497,0.307,207.702,0.112  c15.774-0.045,33.45,1.493,49.038-1.287c10.484-1.87,15.507-8.833,17.001-17.533c9.007-0.064,18.607-2.445,20.023-11.891  c1.185-7.909,5.252-28.582-3.512-33.494c-1.618-0.907-3.645-1.402-5.801-1.684c5.511-11.33,11.643-22.454,17.417-33.627  c7.055-13.655,13.812-27.312,20.743-41.028c7.334-14.511,15.392-28.636,22.81-43.098c6.865-13.385,14.904-27.136,19.756-41.357  C512.515,205.754,512.777,202.789,508.92,198.877z M350.899,83.426c2.115,0.609,6.685,2.222,8.103,4.125  c3.681,4.942-1.114,9.987-3.47,13.731c-2.538,4.036-5.372,7.899-7.667,12.061c-5.441-5.331-12.218-9.351-19.775-11.643  C334.593,93.238,338.617,79.892,350.899,83.426z M356.511,125.09c6.037,6.418,15.073,11.976,20.648,16.402  c10.176,8.077,20.908,15.47,31.422,23.087c11.884,8.61,24.281,16.33,36.417,24.577c10.479,7.122,20.91,16.444,32.055,22.651  c-0.877,2.457-2.931,5.119-3.839,7.012c-1.842,3.842-3.506,7.784-5.333,11.639c-3.207,6.766-6.478,13.423-9.995,20.025  c-7.866,14.763-15.833,29.708-23.293,44.663c-6.483,12.995-12.416,26.458-18.27,39.751c-4.668,10.601-12.653,21.51-15.032,32.919  c-2.903-0.206-5.809-0.289-8.726-0.059c-3.875,0.305-6.918,0.266-8.442,4.46c-1.361,3.745-0.607,10.073,0.587,14.838  c-7.725,0.083-15.441,0.571-23.156,1.195c-15.795-0.41-31.592-0.767-47.389-1.003c-1.409-5.398-2.277-11.206-6.823-14.899  c-5.595-4.546-13.996-5.218-20.893-5.492c-11.296-0.45-29.184,7.237-28.837,20.57c-3.951,0.117-7.904,0.252-11.856,0.386  c-0.244-9.948,1.073-21.264-1.131-31.134c19.285-0.109,38.568-0.035,57.855-0.766c12.989-0.492,42.896,6.982,48.785-9.216  c2.977-8.188,2.244-18.627,2.4-27.159c0.213-11.688-0.154-23.377-0.42-35.062c-0.411-18.014-0.675-35.962-0.384-53.986  c0.272-16.887-0.273-33.867-0.048-50.726c4.794-10.569,8.875-22.902,8.719-34.537C361.433,137.916,359.617,131.113,356.511,125.09z   M307.467,387.148c-7.463-0.092-14.926-0.16-22.389-0.174c-7.256-0.014-14.523,0.126-21.792,0.309  c5.424-9.443,12.825-14.441,24.624-13.773c5.512,0.313,13.506,1.02,17.043,6.065C306.406,381.648,306.945,384.428,307.467,387.148z   M343.087,266.943c0.624,16.01,0.666,32.024,0.143,48.024c-0.037,1.143-0.02,2.389,0.019,3.693  c-5.682-0.038-11.261,0.491-17.071,0.621c-4.311,0.097-9.556-0.578-14.229,0.105c1.296-9.067-0.029-19.055-0.02-28.214  c0.012-11.847,0.143-23.614,0.72-35.446c0.518-10.616,1.753-21.241,1.557-31.871c-0.175-9.501-1.073-20.124,0.235-29.72  c0.08,0.044,0.158,0.088,0.239,0.13c4.921,2.57,11.484,7.742,17.337,7.464c5.271-0.251,9.767-4.138,13.268-8.708  c-0.011,0.546-0.018,1.094-0.04,1.635c-0.329,8.2-0.636,16.396-1.043,24.593C343.421,235.014,342.472,251.168,343.087,266.943z   M261.234,148.725c-5.989-12.556,16.959-27.541,24.512-32.853c0.452-0.318,0.798-0.677,1.062-1.055  c11.581-6.082,24.785-8.683,36.534-5.773c12.404,3.072,24.702,12.953,28.175,25.52c3.382,12.239,0.075,25.144-4.827,36.415  c-2.425,5.575-4.866,10.89-8.028,16.082c-2.462,4.043-1.516,4.107-6.611,4.118c-4.008,0.008-6.339-1.584-9.698-3.346  c-10.433-5.472-20.672-11.292-30.824-17.269c-5.317-3.131-10.599-6.345-15.667-9.869  C272.052,158.044,263.377,153.216,261.234,148.725z M305.982,319.311c-4.272-0.126-8.546-0.25-12.8-0.387  c-29.373-0.95-58.869-1.603-88.258-1.583c-27.818,0.02-55.716,0.426-83.512-0.498c-15.446-0.514-31.029-0.236-46.573-0.249  c1.964-26.946-2.328-54.711-3.54-81.585c-0.324-7.167,0.317-14.233,0.306-21.39c-0.006-3.751-1.489-10.045,0.15-13.295  c2.712-5.377,8.002-6.68,13.263-7.529c14.196-2.29,28.927-1.602,43.261-0.885c23.26,1.165,46.39-1.454,69.64-1.478  c23.39-0.025,46.677,2.011,70.105,1.436c2.211,3.759,5.3,7.083,8.868,9.186c8.968,5.287,22.174,2.85,31.355-3.006  c-0.828,6.381-0.663,13.298-0.697,19.15c-0.063,11.127-0.964,22.045-1.521,33.145C304.889,273.088,303.375,296.623,305.982,319.311z   M273.51,170.383c7.135,4.752,14.596,9.032,22.042,13.275c3.256,1.855,6.51,3.709,9.78,5.535  c-6.747,4.714-16.848,8.407-24.127,4.488c-4.801-2.585-8.193-8.459-8.92-13.671C271.834,176.778,272.695,173.581,273.51,170.383z   M44.777,310.308c-2.48-30.562,2.598-60.911,1.311-91.362c-0.308-7.279-0.408-14.559-0.672-21.839  c-0.24-6.606-2.833-22.368,4.586-25.528c4.913-2.092,14.76-1.207,20.132-1.417c6.961-0.273,13.896-0.347,20.859-0.735  c58.399-3.247,117.685-3.894,176.024,0.343c-0.853,1.845-1.51,3.81-1.706,4.486c-0.927,3.207-1.073,6.632-0.37,9.902  c0.116,0.539,0.286,1.077,0.443,1.616c-25.387-0.747-51.059-2.181-76.38-1.045c-27.774,1.247-55.225,0.446-82.981,0.527  c-10.366,0.031-26.604-1.41-35.417,5.301c-9.054,6.894-5.347,24.471-5.665,34.161c-0.515,15.7,1.402,31.541,2.571,47.174  c1.114,14.896,1.111,29.787,2.312,44.675c-8.219-0.046-16.424-0.195-24.585-0.632C45.086,314.06,44.929,312.187,44.777,310.308z   M103.409,351.127c-14.659,0.02-30.392-0.096-44.674-3.65c-4.879-1.214-9.495-2.608-11.573-7.974  c-0.885-2.284-0.308-6.28-0.575-8.776c-0.354-3.307-0.659-6.612-0.944-9.92c24.92,2.66,50.782,1.221,75.77,2.127  c27.789,1.008,55.698,0.593,83.512,0.614c29.395,0.022,58.877,0.784,88.258,1.705c3.031,0.095,50.359,0.569,50.385,1.462  c0.155,5.431-0.034,10.95-1.953,14.936c-2.19,4.548-6.953,3.612-11.122,3.866c-14.165,0.863-28.423,1.157-42.615,1.155  c-30.17-0.005-60.331,0.031-90.455,1.845C166.066,350.403,134.815,351.083,103.409,351.127z M236.794,370.523  c-0.01,5.855-0.472,11.741-0.103,17.588c-3.325,0.114-6.65,0.23-9.975,0.334c-1.917-3.654,0.008-7.028-4.029-9.53  c-3.849-2.384-10.896-1.497-15.147-1.461c-15.2,0.128-30.708-0.417-45.924-1.295c0.178-5.255-0.112-10.891-1.058-16.165  c11.71-0.594,23.377-1.329,34.925-2.021c13.853-0.829,27.704-1.117,41.553-1.244C236.383,361.253,236.801,365.974,236.794,370.523z   M111.613,381.936c6.859-0.515,13.936,0.435,20.833,0.18c11.813-0.438,23.257,0.548,35.065,0.942  c11.128,0.371,22.34,1.005,33.466,1.171c4.201,0.063,15.39-1.945,17.895,1.445c0.695,0.942,0.979,1.946,1.254,2.969  c-13.976,0.376-27.942,0.529-41.87-0.02c-23.95-0.943-48.017-0.664-72.022,0.087C106.542,384.15,105.904,382.365,111.613,381.936z   M408.159,422.234c-7.511,7.599-26.442,4.153-36.174,4.361c-15.77,0.337-31.548,0.651-47.31,0.952  c-27.231,0.522-54.655-0.926-81.923-0.933c-29.831-0.008-59.688,0.519-89.535,0.536c-29.625,0.017-59.275-0.131-88.868,1.479  c-11.734,0.639-23.502,0.936-35.24,0.218c-10.231-0.626-17.956-1.685-19.877-13.509c-2.022-12.442,5.469-15.314,16.323-16.108  c26.642-1.949,53.522-0.778,80.229-1.744c29.211-1.057,58.35,0.196,87.546-0.185c32.507-0.424,64.959-2.06,97.476-2.016  c34.548,0.046,69.04,0.683,103.59-0.18c0.286-0.007,0.544-0.054,0.787-0.119c4.24,0.019,8.989,0.192,12.125,2.093  C414.906,401.69,413.648,416.682,408.159,422.234z M432.681,386.07c-0.099,3.938-0.34,8.28-0.901,12.161  c-0.421,2.909-0.147,3.205-1.984,5.875c-2.608,3.79-5.438,3.449-9.858,4.137c-0.048,0.008-0.092,0.019-0.14,0.027  c-0.005-0.087-0.004-0.172-0.01-0.259c-0.714-11.321-3.734-18.891-16.13-20.174c-3.86-0.399-7.716-0.622-11.569-0.729  c0.291-2.157,0.207-4.314,0.148-6.632c-0.131-5.151-0.843-4.705,4.79-4.84c5.82-0.14,11.72,1.119,17.533,1.452  c4.275,0.245,10.421-0.604,14.326,0.969C432.889,379.67,432.8,381.324,432.681,386.07z M496.19,223.642  c-13.884,25.447-26.877,51.74-39.778,77.715c-6.162,12.407-12.747,24.576-18.874,37.005c-5.103,10.352-11.477,20.417-15.869,31.1  c-0.978-0.006-1.925-0.015-2.779-0.046c-3.148-0.117-6.283-0.452-9.414-0.801c12.707-22.675,21.212-47.63,33.262-70.648  c14.228-27.18,29.123-54.08,41.894-82.015c5.052-11.051-6.768-14.345-14.582-20.062c-12.604-9.222-25.846-17.485-38.969-25.952  c-13.541-8.737-26.485-18.261-39.545-27.702c-11.574-8.367-24.629-16.691-35.034-26.587c1.864-2.937,4.001-5.814,6.016-8.735  c12.335,5.008,23.904,16.389,34.844,23.112c13.822,8.493,27.329,18,40.899,26.932c14.549,9.577,28.451,19.496,42.279,30.089  c5.922,4.536,12.476,8.622,18.056,13.565C507.015,208.067,500.516,215.714,496.19,223.642z" data-original="#000000" class="" style="fill:#000000" data-old_color="#B2B2B2"/><path d="M129.155,209.024c-21.546,0.94-41.962,21.809-37.586,44.138c7.079,36.12,57.93,43.723,72.844,9.05  C175.444,236.564,156.791,207.819,129.155,209.024z M160.562,255.136c-6.654,23.699-36.743,32.301-54.599,14.763  c-9.452-9.284-10.487-23.074-4.196-34.542c4.267-7.78,14.8-19.292,24.293-20.323C147.978,212.652,166.985,232.259,160.562,255.136z" data-original="#000000" class="" style="fill:#000000" data-old_color="#B2B2B2"/><path d="M278.489,212.551c-6.183-6.673-19.977-7.745-28.219-5.169c-9.101,2.845-7.654,13.697-7.168,21.864  c-1.049,10.288-2.229,20.572-2.267,30.947c-0.029,7.955,0.786,15.909,1.131,23.849c0.222,5.123-0.21,11.562,2.371,16.19  c5.023,9.008,18.018,8.281,26.632,7.179c11.538-1.476,13.013-10.287,14.56-20.985c2.052-14.185,0.716-28.488,0.498-42.743  C285.886,234.513,285.169,219.762,278.489,212.551z M247.709,220.528c1.124-6.236,4.167-8.145,11.053-8.111  c5.587,0.027,12.898,0.62,16.555,5.712c2.117,2.949,2.834,8.282,3.5,11.811c0.124,0.656,0.205,1.312,0.305,1.968  c-5.803-0.72-11.662-0.013-17.519,0.317c-3.986,0.224-7.932,0.55-11.927,0.406c-0.946-0.035-1.756-0.105-2.521-0.11  C247.349,228.518,247.548,224.519,247.709,220.528z M246.963,236.587c2.578-0.088,6.333,0.715,8.143,0.712  c3.373-0.005,6.826-0.304,10.198-0.476c4.729-0.242,9.64,0.202,14.383-0.065c0.52,6.696,0.236,13.391,0.56,20.126  c-11.313-0.002-22.46,1.801-33.831,0.806C246.392,250.668,246.636,243.626,246.963,236.587z M278.996,289.97  c-1.182,5.888-2.983,9.911-9.431,11.742c-5.774,1.639-12.194,0.539-16.811-2.852c-5.103-3.747-4.982-8.209-5.086-13.86  c7.993,0.402,15.847,0.5,23.879,0.53c2.507,0.01,5.422,0.412,8.165,0.281C279.506,287.195,279.275,288.58,278.996,289.97z   M280.374,280.234c-1.86,0.122-3.846,0.453-5.112,0.455c-9.234,0.018-18.5,0.407-27.741,0.611c-0.248-4.454-0.627-8.9-0.859-13.358  c-0.107-2.039-0.153-4.083-0.196-6.128c7.977,1.003,15.636,0.713,23.724,0.405c3.255-0.124,7.027,0.52,10.344-0.073  C280.873,268.23,280.902,274.224,280.374,280.234z" data-original="#000000" class="" style="fill:#000000" data-old_color="#B2B2B2"/><path d="M230.307,212.543c-14.269-2.42-31.976-1.736-46.252,0.562c-0.791,0.127-0.791,1.47,0,1.598  c14.277,2.299,31.983,2.982,46.252,0.562C231.654,215.037,231.655,212.772,230.307,212.543z" data-original="#000000" class="" style="fill:#000000" data-old_color="#B2B2B2"/><path d="M230.307,228.744c-14.269-2.42-31.976-1.736-46.252,0.562c-0.791,0.127-0.791,1.47,0,1.597  c14.277,2.299,31.983,2.982,46.252,0.562C231.654,231.238,231.655,228.973,230.307,228.744z" data-original="#000000" class="" style="fill:#000000" data-old_color="#B2B2B2"/><path d="M230.307,244.945c-14.269-2.42-31.976-1.736-46.252,0.562c-0.791,0.127-0.791,1.47,0,1.598  c14.277,2.299,31.983,2.982,46.252,0.562C231.654,247.439,231.655,245.174,230.307,244.945z" data-original="#000000" class="" style="fill:#000000" data-old_color="#B2B2B2"/><path d="M230.307,261.146c-14.269-2.42-31.976-1.737-46.252,0.562c-0.791,0.127-0.791,1.47,0,1.598  c14.277,2.299,31.983,2.982,46.252,0.562C231.654,263.639,231.655,261.375,230.307,261.146z" data-original="#000000" class="" style="fill:#000000" data-old_color="#B2B2B2"/><path d="M230.307,277.347c-14.269-2.42-31.976-1.737-46.252,0.562c-0.791,0.127-0.791,1.47,0,1.597  c14.277,2.299,31.983,2.982,46.252,0.562C231.654,279.84,231.655,277.575,230.307,277.347z" data-original="#000000" class="" style="fill:#000000" data-old_color="#B2B2B2"/><path d="M230.307,293.548c-14.269-2.42-31.976-1.737-46.252,0.562c-0.791,0.127-0.791,1.47,0,1.597  c14.277,2.299,31.983,2.982,46.252,0.562C231.654,296.041,231.655,293.776,230.307,293.548z" data-original="#000000" class="" style="fill:#000000" data-old_color="#B2B2B2"/></g> </svg>
