<?xml version="1.0"?>
<svg xmlns="http://www.w3.org/2000/svg" xmlns:xlink="http://www.w3.org/1999/xlink" version="1.1" id="Capa_1" x="0px" y="0px" viewBox="0 0 512 512" style="enable-background:new 0 0 512 512;" xml:space="preserve" width="512px" height="512px" class=""><g><path style="fill:#F5A205" d="M313.866,73.541c-8.113,8.606-18.645,15.521-27.458,23.609  c-11.479,10.534-22.322,22.062-33.056,33.353c-16.685,17.552-34.116,33.944-51.688,50.509  c-17.889,16.865-36.042,33.565-52.817,51.544c-5.365,5.751-10.372,11.611-15.423,17.627c-2.318,2.76-6.65,5.673-7.847,9.219  c-2.763,8.189,9.434,21.041,13.556,27.86c8.823,14.597,18.16,28.231,29.622,40.979c4.174,4.642,7.001,9.71,10.622,14.583  c3.87,5.208,9.901,8.662,14.569,13.08c5.142,4.867,9.033,10.448,14.845,14.592c3.902,2.782,16.156,12.505,20.161,11.943  c6.605-0.927,17.768-15.124,22.161-19.473c11.254-11.14,22.776-21.998,34.803-32.277c19.08-16.308,35.97-33.833,52.038-53.078  c19.497-23.353,41.435-44.541,61.944-66.972c10-10.936,20.349-21.285,30.632-31.933c6.749-6.988,16.085-15.202,19.353-24.625  c-22.172-1.123-39.911-22.075-33.31-44.661c-21.128,9.466-32.326-9.866-35.263-27.584c-6.772,1.677-12.087,4.287-19.292,2.418  c-6.095-1.581-10.22-4.912-11.81-11.101c-1.314-5.114,0.936-11.452-2.473-15.928C340.872,48.214,319.301,69.731,313.866,73.541z" data-original="#F76B25" class="" data-old_color="#F76B25"/><path style="fill:#C3C3C3" d="M71.336,232.683c-6.432,2.06-12.24,8.876-16.957,13.435c-7.608,7.353-15.8,13.956-23.591,21.093  c-3.455,3.165-7.311,5.372-6.282,9.971c0.97,4.335,6.995,10.378,9.562,13.858c4.883,6.622,12.094,18.954,19.595,22.688  c10.494,5.223,20.313-9.158,27.2-15.132c32.907-28.545,64.04-59.33,94.152-90.903c4.257-4.464,31.068-27.837,28.593-32.131  c-3.256-5.65-23.142-7.94-28.726-8.06c-18.423-0.397-36.89,13.724-51.197,24.025c-9.587,6.902-19.341,13.208-28.519,20.719  C86.897,219.011,77.716,230.8,71.336,232.683z" data-original="#FFDC0F" class="active-path" data-old_color="#4C4B46"/><path style="fill:#FC315A" d="M129.473,293.756c-10.842,7.427-20.43,16.535-29.839,25.71c-6.157,6.003-20.813,17.002-20.531,27.27  c0.481,17.481,31.826,1.533,38.102,4.115c13.981,5.751-10.51,20.341-13.577,22.743c-7.77,6.085-40.017,23.062-36.327,35.849  c2.179,7.54,22.003,2.791,22.724,8.323c1.368,10.492-5.655,18.353-12.499,25.428c-15.841,16.376-36.534,27.669-51.861,44.75  c-2.807,3.128-14.507,15.142-13.146,19.507c1.639,5.257,11.111,0.319,14.47-0.867c21.401-7.555,41.381-21.747,60.407-33.88  c16.178-10.317,33.388-20.35,47.829-33.049c4.678-4.113,9.153-8.276,13.038-13.184c2.174-2.746,10.301-10.281,9.424-14.412  c-1.599-7.528-20.465-6.118-21.781-13.761c-0.683-3.964,7.665-10.228,9.997-12.211c6.532-5.556,13.757-8.295,21.476-11.733  c5.633-2.509,12.222-4.88,16.56-9.368c2.973-3.075,4.757-7.12,7.722-10.188c-8.985-13.762-21.453-26.257-32.097-38.909  C154.908,310.357,137.96,281.97,129.473,293.756z" data-original="#FF3535" class="" data-old_color="#FF3535"/><path style="fill:#C3C3C3" d="M268.061,347.195c-20.999,21.117-44.829,40.058-66.444,60.603  c-4.877,4.635-14.234,11.453-15.344,18.661c-1.042,6.769,5.886,14.912,9.967,20.095c6.342,8.053,13.303,13.769,22.396,18.576  c9.853,5.21,15.415,4.283,24.922-2.092c14.92-10.004,27.352-24.392,39.242-37.686c11.578-12.945,20.37-25.721,28.462-41.03  c12.71-24.048,23.779-57.556,14.833-84.605c-6.631-1.21-17.206,9.265-21.968,12.942  C291.312,322.555,281.327,334.859,268.061,347.195z" data-original="#FFDC0F" class="active-path" data-old_color="#4C4B46"/><path style="fill:#FFC7A1;" d="M346.751,54.749c-0.279,9.733-0.586,18.942,6.007,27.17c7.679,9.583,21.107,8.041,30.441,1.226  c-1.233,16.654,17.252,33.356,33.344,27.451c1.109,10.225-2.048,19.486,3.587,29.211c6.154,10.621,14.277,15.876,26.695,15.413  c17.597-0.655,25.752-16.7,29.763-31.829c5.564-20.986,7.603-42.722,10.64-64.144c0.544-3.835,3.517-12.732,0.485-15.976  c-2.109-2.257-12.267-0.732-15.343-1.873c-7.395-2.743-13.522-9.615-16.404-16.786c-1.656-4.12-0.782-6.433-4.93-7.42  c-2.248-0.535-7.615,2.35-9.645,2.915c-5.017,1.397-10.076,2.311-15.043,3.916c-9.658,3.121-19.421,5.784-29.095,8.838  c-9.347,2.951-18.489,6.417-27.764,9.555C359.869,45.671,350.971,51.032,346.751,54.749z" data-original="#FFC7A1" class=""/><path style="fill:#4C4B46;" d="M484.753,6.008c-6.585,1.175-26.413,3.596-30.679,9.809c-3.563,5.19,7.259,18.987,11.743,22.389  c5.283,4.008,17.389,7.145,21.857,2.635C493.369,35.094,502.092-5.464,484.753,6.008z" data-original="#4C4B46"/><path d="M487.702,0.476c-21.543,3.991-42.727,12.131-63.81,18.137c-21.53,6.133-42.884,14.794-63.71,22.978  c-10.839,4.259-23.007,8.603-32.985,14.642c-8.674,5.249-15.916,13.16-22.968,20.318c-18.441,18.72-38.298,35.844-56.728,54.561  c-15.411,13.021-30.281,26.677-44.797,40.698c-0.253-0.434-0.605-0.84-1.178-1.149c-37.72-20.313-71.079,10.035-99.993,31.774  C85.3,214.641,70.152,228.24,54.522,241.189c-8.503,7.044-17.038,13.556-24.748,21.509c-4.561,4.704-8.773,8.939-8.166,15.917  c0.607,6.975,5.482,12.796,9.568,18.14c4.737,6.194,9.626,14.551,16.003,19.25c13.312,9.809,24.221-2.191,34.7-10.336  c14.275-11.095,26.208-24.952,38.529-38.079c0.301-0.321,0.604-0.64,0.905-0.961c0.146,7.979,4.972,15.298,10.366,22.462  c-3.686,1.275-7.3,4.913-9.868,6.972c-11.605,9.307-22.366,19.237-32.131,30.482c-6.142,7.073-25.033,28.498-6.055,31.839  c5.271,0.927,10.525-0.893,15.642-1.903c3.422-0.676,10.949-1.928,14.188-0.303c3.096,1.553,1.353,3.266-0.335,6.541  c-1.735,3.367-9.009,7.913-11.607,9.852c-5.622,4.196-11.421,8.141-16.961,12.448c-5.919,4.603-37.379,29.056-15.905,33.976  c6.843,1.568,11.378-1.913,16.944,3.546c5.75,5.638,0.713,6.796-4.072,11.22c-2.935,2.713-6.131,5.26-9.184,7.842  c-11.431,9.668-23.28,18.873-34.247,29.082c-4.738,4.411-38.839,34.418-23.272,40.738c7.539,3.061,21.651-6.896,27.533-10.01  c13.592-7.197,27.278-14.001,40.351-22.137c23.403-14.563,46.393-31.218,66.46-50.173c4.66-4.401,14.788-12.823,11.187-20.432  c-3.156-6.672-12.427-5.944-18.134-8.076c-5.287-1.975-4.577-1.484-2.113-6.102c2.389-4.478,9.179-7.884,13.349-10.022  c6.281-3.22,13.174-5.162,19.616-8.02c9.752-4.326,15.086-8.813,19.907-16.759c2.578,2.36,5.206,4.663,7.97,6.799  c7.283,5.629,14.303,12.153,22.442,16.61c-2.816,2.587-5.617,5.193-8.368,7.855c-10.108,9.781-21.275,18.549-30.554,29.095  c-8.353,9.493-2.653,17.934,4.996,26.09c7.784,8.3,17.033,20.283,27.959,24.435c13.943,5.299,28.234-5.349,38.995-13.092  c24.195-17.412,42.655-40.821,55.268-67.662c6.827-14.527,14.683-28.181,18.873-43.809c4.383-16.346,2.262-33.216-1.153-49.514  c-0.022-0.108-0.065-0.191-0.091-0.294c27.717-28.359,53.844-58.028,80.792-87.234c16.341-17.71,33.553-34.74,50.493-51.875  c6.861-6.94,11.769-10.441,14.274-19.786c2.946-10.995,4.846-22.221,7.154-33.361c5.174-24.974,10.448-49.929,15.506-74.929  C500.147,16.079,507.998-3.285,487.702,0.476z M225.162,167.523c30.209-29.999,61.655-58.645,91.895-88.586  c8.052-7.972,17.215-13.698,26.974-18.449c-1.083,6.845-0.522,14.12,1.151,18.073c3.044,7.187,9.301,11.807,16.826,13.141  c2.982,0.528,5.568,0.59,7.966,0.351c-1.851,1.349-3.622,2.627-5.004,3.845c-4.352,3.834-8.397,7.948-12.436,12.104  c-9.904,10.19-20.213,20.04-30.537,29.805c-19.448,18.393-38.832,36.829-58.18,55.331c-19.486,18.634-38.584,37.391-57.457,56.641  c-9.434,9.623-18.843,19.284-28.327,28.855c-7.46,7.528-16.39,14.51-23.791,22.296c-7.292-8.307-14.23-16.911-19.064-26.356  c-4.671-9.127-0.02-17.125,6.173-24.189C170.857,224.654,197.45,195.043,225.162,167.523z M380.142,89.431  c0.49-0.175,0.975-0.348,1.477-0.529c0.109,7.731,1.437,14.944,7.695,21.036c4.027,3.92,9.575,6.158,15.067,7.035  c2.488,0.397,4.63,0.21,6.681-0.169c-41.306,36.007-81.004,74.092-121.599,110.888c-37.341,33.847-72.017,69.726-105.203,107.456  c-3.923-4.123-7.728-8.398-11.37-12.916c-4.234-5.253-8.941-10.438-13.663-15.694c7.452-7.923,16.506-14.998,24.083-22.625  c9.993-10.059,19.905-20.229,29.797-30.389c19.826-20.365,40.172-39.944,60.629-59.672c19.93-19.22,40.092-38.211,59.943-57.505  c10.182-9.897,20.013-20.024,29.727-30.369C367.87,101.222,375.812,95.732,380.142,89.431z M98.653,276.182  c-5.363,5.519-11.136,10.875-16.916,15.948c-5.337,4.685-12.879,12.383-19.362,15.506c-9.129,4.4-13.709-5.119-18.904-11.737  c-4.479-5.706-12.542-12.864-10.246-20.222c2.143-6.867,12.597-14.181,18.059-18.482c6.481-5.103,12.831-10.298,19.106-15.659  c13.379-11.432,26.973-22.728,41.064-33.268c13.195-9.87,26.3-19.98,40.745-28.005c10.319-5.732,18.932-7.684,30.748-5.657  c5.322,0.913,9.564,2.226,14.724,2.067c-9.654,9.436-19.153,19.029-28.541,28.705c-8.382,8.639-17.664,17.405-26.251,26.623  C127.393,245.903,113.006,261.411,98.653,276.182z M163.859,371.921c-9.164,3.656-17.776,6.654-25.242,13.311  c-10.959,9.771-13.2,19.541,2.862,23.02c2.615,0.567,7.875,0.526,9.704,2.499c3.66,3.945-3.996,9.856-7.334,13.04  c-10.188,9.716-21.396,18.679-32.527,27.288c-20.209,15.631-41.906,29.081-64.477,40.979c-5.09,2.683-10.095,5.557-15.277,8.06  c-2.586,1.249-10.941,7.197-10.918,2.5c0.012-2.422,0.884-2.364,1.908-4.213c5.877-10.617,17.705-19.928,26.684-27.847  c9.235-8.146,18.818-15.871,28.164-23.885c6.457-5.537,17.816-12.901,19.546-22.044c1.201-6.353-3.057-9.616-8.611-11.148  c-4.454-1.229-9.816,0.395-13.95-0.884c-8.85-2.738-1.466-8.047,3.005-12.27c9.525-8.998,20.613-16.03,30.948-24.015  c5.248-4.054,14.538-10.463,16.002-17.672c3.74-18.414-29.21-5.103-36.511-7.613c-10.391-3.572,14.362-27.681,18.822-32.181  c2.695-2.719,24.937-25.195,27.122-24.175c0.814,0.38,1.601,0.395,2.296,0.187c0.804,1.059,1.599,2.118,2.366,3.178  c11.572,16.001,25.311,31.825,38.948,46.09c3.25,3.4,6.526,6.805,9.876,10.131C181.662,363.365,174.241,367.779,163.859,371.921z   M318.179,349.889c-4.546,14.41-12.099,27.905-18.838,41.419c-6.802,13.64-15.477,26.463-26.319,37.214  c-11.646,11.55-26.915,28.725-43.809,32.332c-10.008,2.137-16.188-5.991-22.726-12.111c-3.635-3.402-15.854-13.352-15.691-18.508  c0.211-6.689,9.936-11.516,14.361-15.366c10.517-9.15,19.693-19.646,30.747-28.13c13.101-10.054,23.962-21.784,35.385-33.462  c11.952-12.218,24.351-23.987,36.675-35.826c4.18-4.015,8.302-8.077,12.393-12.162C322.475,320.681,323.06,334.417,318.179,349.889z   M432.3,170.441c-31.218,31.044-59.104,64.98-89.747,96.522c-27.95,28.77-57.811,55.708-85.338,84.852  c-1.277,1.351-2.574,2.692-3.878,4.033c-0.464,0.452-0.929,0.904-1.39,1.34c-6.446,6.074-13.069,11.946-19.663,17.852  c-0.376-0.091-0.768-0.204-1.193-0.356c-5.224-1.874-9.402-6.132-13.619-9.546c-9.806-7.942-19.21-15.986-28.033-24.706  c14.518-15.05,28.061-31.291,42.303-46.657c19.837-21.403,41.336-41.258,62.945-60.858c21.896-19.861,43.747-39.733,65.306-59.956  c18.13-17.007,36.947-33.212,53.995-51.302c-0.552,10.574,1.317,21.404,8.172,29.79c4.801,5.873,12.16,8.783,19.702,9.184  C438.702,163.929,435.538,167.221,432.3,170.441z M479.38,63.113c-4.312,20.795-7.878,41.854-12.799,62.514  c-2.155,9.047-4.025,14.193-10.77,20.756c-1.13,1.1-2.231,2.227-3.344,3.344c-12.073,1.535-21.931-0.684-26.216-13.546  c-2.969-8.91-2.522-15.737-0.59-24.857c0.662-3.127-1.438-6.61-4.942-6.487c-8.703,0.305-16.271,4.999-24.034-2.291  c-6.413-6.022-5.301-12.64-5.159-20.479c0.056-3.1-3.184-5.664-6.196-4.72c-10.64,3.334-22.618,11.815-31.181-1.396  c-2.012-3.104-3.478-12.273-2.107-19.12c6.308-2.707,12.797-5.164,19.35-7.67c18.703-7.153,37.862-15.261,57.234-20.367  c8.165-2.152,16.261-4.816,24.362-7.47c1.718,6.73,5.68,13.266,10.318,17.957c5.388,5.449,12.104,7.556,19.244,8.417  C481.494,52.837,480.446,57.977,479.38,63.113z M489.75,12.106c-1.588,5.164-2.121,10.873-3.202,16.162  c-0.871,4.255-1.752,8.508-2.625,12.763c-6.702-0.575-12.76-2.388-17.867-7.768c-3.76-3.961-6.164-8.635-8.323-13.483  c9.104-2.953,18.235-5.767,27.502-7.694c0.812-0.169,3.735-1.118,4.983-1.693C490.061,10.964,489.905,11.535,489.75,12.106z" data-original="#000000" class="" style="fill:#000000"/></g> </svg>
